# xmcd
#
# Track frame offsets: 
#        150
#        24852
#        41856
#        46785
#        63917
#        81540
#        92895
#        108601
#        122511
#        142864
#        155359
#        165546
#
# Disc length: 2411 seconds
#
# Revision: 0
# Processed by: cddbd v1.5.2PL0 Copyright (c) Steve Scherf et al.
# Submitted via: ExactAudioCopy v1.0b1
#
DISCID=9409690c
DTITLE=Heather Luttrell - Possumdiva
DYEAR=2012
DGENRE=Blues
TTITLE0=Road Home to Hell
TTITLE1=Broken Conservation
TTITLE2=Siren Song
TTITLE3=Redemption
TTITLE4=Perfect Day
TTITLE5=Mera Parivar
TTITLE6=Dr. Feelgood
TTITLE7=More Fun to Sin
TTITLE8=What is Wanting
TTITLE9=He'll Do Till He Quits Doin'
TTITLE10=Any Old Way
TTITLE11=Well Done Is Better Than Well Said
EXTD=
EXTT0=
EXTT1=
EXTT2=
EXTT3=
EXTT4=
EXTT5=
EXTT6=
EXTT7=
EXTT8=
EXTT9=
EXTT10=
EXTT11=
PLAYORDER=
